:SAMPLES-PER-SECOND 30
:FULLY-SPECIFIED
:DEGREES
135
root  34.78383042 36.5539761 -14.23957554 9.934591293 -3.993074179 4.614823818
lowerback  -7.568339825 -0.1416799724 -0.7953470945
upperback  -4.11838007 0.4459379911 -4.811810017
thorax  0.01840350032 0.422103405 -4.50221014
lowerneck  -4.10766983 -16.25200081 -10.5248003
upperneck  7.069749832 -22.17449951 12.1310997
head  5.312689781 -10.61250019 3.606580019
lclavicle  0 -4.497500157e-015 -2.743230041e-014
lhumerus  -47.79710007 30.09180069 61.15790176
lradius  0.007530470379 -6.507048965e-006 29.04319954
lwrist  4.824992743e-007 -3.790274832e-007 -30.65880013
lhand  -4.406287275e-031 -36.73759842 -10.57499981
lfingers  90 7.125020027 -90
lthumb  94.71903742 -25.41831517 100.8863553
rclavicle  0 -4.497500157e-015 -2.743230041e-014
rhumerus  31.38589859 -45.03010178 -34.83789825
rradius  -5.16745672e-007 2.214343908e-008 55.88619995
rwrist  -2.867388866e-005 0.087298356 -167.026001
rhand  -1.770298135e-031 4.191790104 -5.394219875
rfingers  -90 -7.125020027 -90
rthumb  -84.03392151 -10.36903666 -59.85938344
rfemur  -11.96094322 14.41393089 11.86057758
rtibia  -1.028368115 -1.92633605 19.49157906
rfoot  0.9911971688 -22.41659355 -34.95103836
rtoes  4.033239797 19.6054349 -101.8673381
lfemur  -3.251017094 -17.27099228 -23.91925621
ltibia  7.56589365 -0.986967802 5.931092262
lfoot  0.6473286152 -19.92588425 36.55560303
ltoes  -8.59651324 -18.12693663 -115.9149292
136
root  34.78371027 36.55213784 -14.24323555 9.898854256 -3.894700527 4.640930176
lowerback  -7.60284996 -0.1475320309 -0.7831426263
upperback  -4.120220184 0.4406509995 -4.818970203
thorax  0.03524120152 0.4187178612 -4.517020226
lowerneck  -4.114630222 -16.25049973 -10.58650017
upperneck  7.103340149 -22.17749977 12.18859959
head  5.338349819 -10.61069965 3.627779961
lclavicle  0 -4.497500157e-015 -2.743230041e-014
lhumerus  -47.75529861 30.08009911 61.14860153
lradius  0.007717352826 -6.507048965e-006 29.02820015
lwrist  4.824992743e-007 -3.790274832e-007 -30.62520027
lhand  -4.422448222e-031 -37.01720047 -10.8270998
lfingers  90 7.125020027 -90
lthumb  94.90375899 -25.65577775 101.2085638
rclavicle  0 -4.497500157e-015 -2.743230041e-014
rhumerus  32.06599808 -45.25239944 -34.93859482
rradius  -5.16745672e-007 2.214343908e-008 54.87360001
rwrist  -2.867388866e-005 0.08673650771 -166.5910034
rhand  -1.771150261e-031 4.552420139 -5.219560146
rfingers  -90 -7.125020027 -90
rthumb  -83.8494512 -10.53667546 -59.48931738
rfemur  -11.89992523 14.38970947 11.8720417
rtibia  -1.055143476 -1.928349853 19.47888184
rfoot  0.9882476926 -22.37989235 -35.01887131
rtoes  4.027376826 19.60659462 -101.8498654
lfemur  -3.293170452 -17.30608368 -23.90491676
ltibia  7.50732851 -0.9669807553 6.046824932
lfoot  0.6753815413 -20.04584122 36.53788757
ltoes  -8.584923341 -18.13228411 -115.8776827
137
root  34.78377034 36.55125776 -14.24690607 9.884569168 -3.791993618 4.676693439
lowerback  -7.597159386 -0.1526839584 -0.752738893
upperback  -4.135200024 0.4327999949 -4.822340012
thorax  0.01608319953 0.4139460027 -4.538599968
lowerneck  -4.096489906 -16.25769997 -10.6239996
upperneck  7.143829823 -22.19079971 12.19139957
head  5.353889942 -10.61760044 3.631279945
lclavicle  0 -4.497500157e-015 -2.743230041e-014
lhumerus  -47.74620056 30.04470062 61.12810135
lradius  0.007909409702 -6.507048965e-006 29.02850151
lwrist  4.824992743e-007 -3.790274832e-007 -30.60269928
lhand  -4.434992872e-031 -37.23160172 -10.94869995
lfingers  90 7.125020027 -90
lthumb  95.0316507 -25.76711055 101.4495838
rclavicle  0 -4.497500157e-015 -2.743230041e-014
rhumerus  32.63729858 -45.44910049 -34.94340515
rradius  -5.16745672e-007 2.214343908e-008 53.80550003
rwrist  -2.867388866e-005 0.08617310971 -166.2590027
rhand  -1.771105726e-031 4.534289837 -5.235429764
rfingers  -90 -7.125020027 -90
rthumb  -83.86245778 -10.52215557 -59.50860672
rfemur  -11.86358547 14.34257603 11.86655426
rtibia  -1.086303353 -1.96241653 19.47341537
rfoot  0.9676902294 -22.40197563 -35.09670639
rtoes  4.018244371 19.60839754 -101.8226511
lfemur  -3.400838137 -17.37212372 -23.87866974
ltibia  7.420976639 -0.9635124803 6.228212833
lfoot  0.7057191133 -20.14406586 36.5213356
ltoes  -8.566979469 -18.1405455 -115.8200374
138
root  34.78488171 36.55158216 -14.25100011 9.895691872 -3.721086264 4.710212231
lowerback  -7.559400558 -0.1586926281 -0.7202557921
upperback  -4.148439884 0.4251309931 -4.826290131
thorax  -0.01900110021 0.4094910026 -4.562029839
lowerneck  -4.090240002 -16.26869965 -10.64239979
upperneck  7.192100048 -22.20789909 12.16870022
head  5.368979931 -10.62650013 3.623589993
lclavicle  0 -4.497500157e-015 -2.743230041e-014
lhumerus  -47.77019882 30.05669975 61.05199814
lradius  0.008106095716 -6.507048965e-006 29.00629997
lwrist  4.824992743e-007 -3.790274832e-007 -30.6359005
lhand  -0 -37.24530029 -10.83619976
lfingers  90 7.125020027 -90
lthumb  95.01339402 -25.65637067 101.4536004
rclavicle  0 -4.497500157e-015 -2.743230041e-014
rhumerus  33.33490372 -45.65359879 -35.09930038
rradius  -5.16745672e-007 2.214343908e-008 52.73040009
rwrist  -2.867388866e-005 0.08560821414 -166.1560059
rhand  -1.770738284e-031 4.381810188 -5.056729794
rfingers  -90 -7.125020027 -90
rthumb  -83.81095146 -10.66927669 -59.64132858
rfemur  -11.88066292 14.31097603 11.84583855
rtibia  -1.118776441 -1.995523572 19.49706078
rfoot  0.9427773356 -22.42278481 -35.14666367
rtoes  4.009110568 19.61019644 -101.7954351
lfemur  -3.513644695 -17.36979866 -23.85626984
ltibia  7.357519627 -0.9320240617 6.358104706
lfoot  0.73888731 -20.27514458 36.50415039
ltoes  -8.557615147 -18.14484829 -115.7899642
139
root  34.78553051 36.55083123 -14.25343761 9.884777069 -3.637629747 4.755029678
lowerback  -7.532410145 -0.1617500186 -0.6804366708
upperback  -4.165090084 0.4141019881 -4.826630116
thorax  -0.05192989856 0.4033389986 -4.586090088
lowerneck  -4.088429928 -16.28140068 -10.62230015
upperneck  7.226570129 -22.22369766 12.10410023
head  5.371059895 -10.63659954 3.599920034
lclavicle  0 -4.497500157e-015 -2.743230041e-014
lhumerus  -47.77059937 30.03070068 61.01530075
lradius  0.008306866512 -6.507048965e-006 28.97290039
lwrist  4.824992743e-007 -3.790274832e-007 -30.70590019
lhand  -4.411182526e-031 -36.8227005 -10.63710022
lfingers  90 7.125020027 -90
lthumb  94.77182066 -25.4763274 100.9828883
rclavicle  0 -4.497500157e-015 -2.743230041e-014
rhumerus  33.89569855 -45.76070023 -35.19260025
rradius  -5.16745672e-007 2.214343908e-008 51.89929962
rwrist  -2.867388866e-005 0.08504185081 -165.621994
rhand  -0 4.759829998 -5.176459789
rfingers  -90 -7.125020027 -90
rthumb  -83.77184752 -10.58332966 -59.28168214
rfemur  -11.89831161 14.29465389 11.82505131
rtibia  -1.158766866 -1.99539578 19.57269096
rfoot  0.8910425901 -22.39677811 -35.23184586
rtoes  3.994075507 19.61314827 -101.7506404
lfemur  -3.243860006 -17.35544586 -24.00078773
ltibia  7.547261715 -0.9275825024 5.901508331
lfoot  0.6911897659 -20.13242149 36.44079208
ltoes  -8.577021336 -18.13592487 -115.8522941
